<?xml version="1.0" standalone="no"?>
<!DOCTYPE svg PUBLIC "-//W3C//DTD SVG 20010904//EN"
 "http://www.w3.org/TR/2001/REC-SVG-20010904/DTD/svg10.dtd">
<svg version="1.0" xmlns="http://www.w3.org/2000/svg"
 width="512.000000pt" height="512.000000pt" viewBox="0 0 512.000000 512.000000"
 preserveAspectRatio="xMidYMid meet">
<metadata>
Created by potrace 1.11, written by Peter Selinger 2001-2013
</metadata>
<g transform="translate(0.000000,512.000000) scale(0.100000,-0.100000)"
fill="#000000" stroke="none">
<path d="M3740 4934 c-47 -25 -112 -60 -145 -78 -92 -51 -154 -85 -220 -121
-33 -18 -123 -68 -200 -110 -77 -42 -145 -77 -152 -78 -7 0 -14 -6 -17 -14 -3
-7 -10 -13 -16 -13 -5 0 -70 -33 -143 -74 -73 -40 -168 -92 -212 -116 -44 -23
-85 -46 -91 -51 -6 -5 -14 -6 -17 -2 -4 3 -7 2 -7 -4 0 -5 -19 -18 -42 -29
-24 -10 -45 -22 -48 -26 -3 -4 -17 -12 -30 -17 -14 -6 -38 -19 -55 -29 -16
-10 -75 -42 -130 -71 -55 -29 -104 -57 -110 -61 -5 -4 -44 -25 -85 -47 -41
-22 -96 -52 -122 -67 -27 -14 -69 -38 -95 -52 -27 -14 -54 -31 -60 -36 -7 -6
-13 -7 -13 -3 0 5 -8 2 -17 -6 -10 -8 -36 -24 -58 -36 -22 -11 -58 -31 -80
-43 -37 -21 -81 -45 -190 -103 -22 -12 -43 -26 -47 -32 -5 -7 -8 -7 -8 0 0 6
-4 4 -9 -3 -4 -7 -14 -14 -22 -15 -8 -2 -29 -13 -47 -25 -18 -13 -32 -20 -32
-16 0 4 -8 1 -17 -8 -10 -8 -47 -29 -83 -48 -36 -18 -66 -37 -68 -42 -2 -4
-12 -8 -22 -8 -10 0 -22 -4 -25 -10 -3 -5 -23 -17 -43 -27 -20 -9 -39 -19 -42
-22 -3 -4 -23 -16 -45 -27 -22 -12 -71 -38 -110 -59 -38 -21 -83 -45 -100 -53
-16 -8 -38 -22 -47 -30 -10 -8 -18 -11 -18 -6 0 5 -4 4 -8 -2 -4 -6 -45 -31
-92 -56 -80 -43 -109 -59 -228 -124 -26 -15 -95 -54 -155 -87 l-107 -59 60
-115 c33 -63 73 -137 89 -166 75 -133 103 -185 124 -227 12 -25 25 -47 28 -50
5 -5 84 -148 117 -213 8 -16 16 -27 18 -25 1 2 5 141 8 308 3 168 7 325 10
351 11 113 122 228 236 245 19 2 62 7 95 10 33 3 72 6 86 8 14 1 53 17 85 36
80 45 122 68 169 93 22 12 42 24 45 27 3 3 35 21 72 40 38 19 68 38 68 42 0 4
4 7 8 6 8 -3 48 18 235 124 38 21 73 38 78 38 5 0 9 5 9 11 0 5 4 8 9 5 4 -3
19 3 31 14 13 11 27 20 31 20 5 0 30 13 58 29 27 16 52 27 55 24 3 -4 6 -2 6
4 0 9 50 37 59 33 2 -1 7 2 10 7 3 4 31 21 61 37 30 16 71 39 90 49 94 54 198
110 223 120 15 6 27 15 27 20 0 4 5 5 10 2 6 -3 10 -2 10 3 0 5 8 12 18 15 9
3 49 24 87 45 39 21 102 56 140 77 170 93 269 147 330 180 22 12 77 42 123 66
45 24 82 47 82 51 0 5 9 8 20 8 11 0 20 5 20 11 0 5 4 8 8 5 4 -2 18 4 32 14
21 16 28 16 62 4 21 -7 39 -13 41 -13 3 0 36 -11 70 -23 16 -7 33 -24 41 -43
7 -17 35 -50 61 -72 85 -72 186 -85 284 -36 56 28 57 28 101 13 54 -19 52 -19
89 -26 22 -5 35 -17 52 -53 13 -25 27 -47 32 -49 4 -2 7 -8 7 -13 0 -5 11 -27
25 -49 14 -22 22 -40 18 -40 -5 0 -3 -4 3 -8 5 -4 18 -23 27 -42 10 -19 26
-48 36 -65 9 -16 31 -55 47 -85 16 -30 33 -58 37 -61 5 -3 8 -8 7 -10 -4 -9
24 -59 33 -59 6 0 7 -3 4 -6 -7 -7 42 -97 55 -102 5 -2 6 -7 3 -12 -3 -5 1
-15 9 -22 14 -15 31 -58 28 -71 -1 -4 -4 -15 -5 -25 -2 -9 -11 -43 -21 -74
-16 -52 -22 -60 -67 -85 -27 -16 -49 -31 -49 -35 0 -4 -13 -22 -30 -40 -16
-18 -30 -38 -30 -45 0 -9 85 -12 376 -13 l375 0 -27 47 c-15 27 -35 62 -44 78
-10 17 -37 66 -60 110 -62 115 -64 118 -79 138 -8 9 -10 17 -6 17 4 0 2 8 -6
18 -8 9 -26 37 -39 62 -14 25 -37 68 -52 95 -15 28 -44 82 -64 120 -20 39 -45
82 -56 98 -11 15 -16 27 -13 27 3 0 -3 13 -14 29 -12 16 -21 34 -21 40 0 6 -4
11 -8 11 -5 0 -14 16 -22 35 -8 19 -18 35 -22 35 -5 0 -7 4 -4 9 3 5 -1 14 -9
21 -8 7 -15 17 -15 22 0 5 -23 51 -51 101 -28 51 -67 121 -86 157 -56 104 -68
125 -73 130 -5 4 -18 30 -79 148 -8 15 -18 30 -23 33 -5 3 -10 13 -12 21 -1 8
-8 26 -17 39 -8 13 -21 38 -29 54 -8 17 -18 32 -21 35 -9 7 -40 69 -38 76 0 4
-3 10 -8 13 -4 3 -13 15 -19 26 -25 47 -66 120 -68 122 -1 1 -39 -19 -86 -43z"/>
<path d="M3658 3685 c-2 -2 -19 -7 -38 -10 -119 -21 -202 -121 -204 -245 -2
-117 73 -221 179 -249 47 -12 141 -4 180 17 46 23 105 78 105 97 0 7 5 15 10
17 6 2 12 13 15 26 3 12 8 32 11 45 7 29 7 35 -1 80 -8 50 -33 107 -45 107 -6
0 -10 6 -10 13 0 18 -131 103 -142 91 -3 -2 -17 0 -31 5 -14 5 -27 8 -29 6z"/>
<path d="M2629 3506 c-2 -2 -42 -6 -89 -9 -99 -7 -273 -57 -300 -86 -3 -4 -11
-7 -19 -9 -15 -3 -67 -38 -89 -59 -7 -7 -17 -13 -21 -13 -8 0 -151 -136 -151
-144 0 -5 -22 -35 -46 -60 -22 -24 -57 -96 -50 -103 4 -5 322 -9 707 -11 640
-3 699 -2 699 13 0 25 -50 145 -81 195 -38 60 -170 185 -183 173 -3 -4 -6 -1
-6 5 0 6 -10 14 -22 18 -13 3 -29 11 -37 17 -7 6 -18 12 -25 13 -6 2 -36 12
-66 24 -30 11 -63 19 -72 16 -10 -2 -20 0 -23 4 -3 5 -13 7 -23 6 -9 -2 -29 0
-44 5 -18 5 -28 4 -28 -3 0 -7 -4 -7 -13 1 -8 6 -16 9 -18 7z"/>
<path d="M758 2698 c-2 -7 -4 -584 -4 -1283 l1 -1270 2178 -3 2177 -2 0 1285
0 1285 -2174 0 c-1730 0 -2175 -3 -2178 -12z m3499 -329 c34 -30 98 -104 100
-116 2 -7 5 -32 8 -55 9 -82 23 -115 67 -162 37 -39 111 -74 148 -72 14 1 29
0 35 -3 5 -3 20 -6 34 -7 14 -2 49 -27 82 -60 l57 -57 1 -418 0 -417 -63 -60
c-51 -47 -70 -59 -100 -60 -63 -3 -71 -5 -83 -15 -7 -5 -13 -7 -13 -3 0 25
-137 -87 -141 -115 -3 -19 -5 -24 -13 -37 -4 -8 -10 -35 -11 -60 -4 -66 -16
-90 -74 -147 l-52 -50 -1312 0 -1312 -1 -47 48 c-55 56 -64 71 -67 118 -5 64
-7 80 -14 86 -4 4 -7 16 -7 26 0 10 -5 18 -11 18 -5 0 -8 4 -5 9 4 5 -17 30
-45 54 -38 33 -67 49 -110 60 -34 8 -59 11 -59 5 0 -5 -6 -6 -12 -1 -7 4 -22
8 -34 9 -11 0 -47 27 -79 60 l-58 59 -1 409 c-1 321 2 413 12 427 26 37 107
114 122 115 143 13 187 29 234 85 29 34 60 89 51 89 -4 0 -3 6 2 13 4 6 8 35
9 64 2 56 5 61 75 131 l47 47 1310 0 c1183 0 1313 -2 1329 -16z"/>
<path d="M2722 2070 c-40 -11 -94 -29 -120 -41 -26 -12 -52 -23 -59 -25 -6 -1
-27 -14 -46 -28 -19 -14 -37 -26 -40 -26 -21 0 -152 -130 -196 -193 -58 -85
-89 -168 -97 -257 -18 -220 31 -362 178 -510 122 -123 270 -202 423 -228 29
-4 287 -6 323 -2 79 10 220 64 289 110 24 17 49 30 54 30 6 0 7 5 4 10 -3 6
-1 10 6 10 13 0 159 146 159 159 0 4 9 18 20 31 11 12 17 27 14 31 -3 5 -2 9
3 9 13 0 47 90 59 157 8 40 12 176 6 187 -3 6 -7 24 -8 40 -2 17 -5 38 -7 46
-11 42 -57 141 -74 158 -7 7 -13 17 -13 22 0 10 -121 134 -166 170 -75 61
-227 131 -318 146 -17 3 -96 7 -176 9 -120 3 -158 1 -218 -15z"/>
<path d="M1603 1669 c-58 -11 -112 -41 -151 -83 -18 -20 -29 -36 -26 -36 4 0
0 -8 -8 -17 -18 -21 -19 -26 -23 -115 -2 -38 1 -70 6 -74 5 -3 9 -14 9 -25 0
-10 5 -19 10 -19 6 0 10 -5 10 -10 0 -20 89 -100 116 -105 11 -2 19 -4 19 -5
0 -5 45 -11 80 -11 82 0 162 42 209 109 33 49 39 72 38 147 -1 73 -21 125 -68
171 -36 34 -121 80 -131 70 -3 -2 -15 -1 -27 3 -11 4 -40 4 -63 0z"/>
<path d="M4198 1674 c-2 -1 -18 -4 -36 -7 -18 -3 -40 -11 -48 -17 -7 -7 -14
-9 -14 -4 0 5 -7 0 -15 -10 -8 -11 -15 -16 -15 -10 0 18 -62 -61 -82 -104 -26
-58 -26 -149 1 -205 23 -47 86 -119 95 -110 3 4 6 1 6 -5 0 -6 13 -13 30 -17
16 -4 32 -10 34 -14 8 -12 139 6 181 26 119 55 171 205 115 327 -15 31 -29 53
-33 49 -4 -3 -7 -1 -7 5 0 17 -32 47 -68 63 -18 8 -32 18 -32 22 0 5 -3 6 -7
4 -5 -3 -29 -2 -55 3 -27 4 -49 6 -50 4z"/>
</g>
</svg>
